<svg width="60" height="60" viewBox="0 0 60 60" fill="none" xmlns="http://www.w3.org/2000/svg">
<path d="M30 0C13.433 0 0 13.7813 0 30.7634C0 44.3571 8.59821 55.875 20.5179 59.9464C20.685 59.9827 20.8557 60.0007 21.0268 60C22.1384 60 22.567 59.183 22.567 58.4732C22.567 57.7366 22.5402 55.808 22.5268 53.2366C21.5344 53.4692 20.5192 53.5905 19.5 53.5982C13.7277 53.5982 12.4152 49.1116 12.4152 49.1116C11.0491 45.5625 9.08036 44.6116 9.08036 44.6116C6.46875 42.7768 9.06696 42.7232 9.26786 42.7232H9.28125C12.2946 42.9911 13.875 45.9107 13.875 45.9107C15.375 48.5357 17.3839 49.2723 19.1786 49.2723C20.3652 49.2486 21.5335 48.9748 22.6071 48.4688C22.875 46.4866 23.6518 45.1339 24.5089 44.3571C17.8527 43.5804 10.8482 40.942 10.8482 29.1563C10.8482 25.7946 12.0134 23.0491 13.9286 20.9063C13.6205 20.1295 12.5893 16.9955 14.2232 12.7634C14.4424 12.711 14.6676 12.6884 14.8929 12.6964C15.9777 12.6964 18.4286 13.1116 22.4732 15.9241C27.3878 14.5491 32.5854 14.5491 37.5 15.9241C41.5446 13.1116 43.9955 12.6964 45.0804 12.6964C45.3056 12.6884 45.5308 12.711 45.75 12.7634C47.3839 16.9955 46.3527 20.1295 46.0446 20.9063C47.9598 23.0625 49.125 25.808 49.125 29.1563C49.125 40.9688 42.1071 43.567 35.4241 44.3304C36.4955 45.2813 37.4598 47.1563 37.4598 50.0223C37.4598 54.1339 37.4196 57.4554 37.4196 58.4598C37.4196 59.183 37.8348 60 38.9464 60C39.1264 60.0008 39.3059 59.9828 39.4821 59.9464C51.4152 55.875 60 44.3438 60 30.7634C60 13.7813 46.567 0 30 0Z" fill="black"/>
</svg>
