
<svg width="60" height="60" viewBox="0 0 60 60" fill="none" xmlns="http://www.w3.org/2000/svg">
<path fill-rule="evenodd" clip-rule="evenodd" d="M51.2584 8.71887C48.4848 5.94396 45.1898 3.74506 41.563 2.24873C37.9362 0.7524 34.0492 -0.0117943 30.1258 0.000137597C13.6607 0.000137597 0.257142 13.3367 0.250446 29.7322C0.243162 34.9529 1.61932 40.0823 4.23883 44.5982L0 60L15.837 55.8656C20.2208 58.2405 25.1281 59.4834 30.1138 59.4817H30.1258C46.5897 59.4817 59.9919 46.1438 59.9999 29.7496C60.0099 25.8397 59.2422 21.9668 57.7415 18.3563C56.2407 14.7458 54.037 11.4698 51.2584 8.71887ZM30.1258 54.4634H30.1151C25.6706 54.4647 21.3068 53.2753 17.4777 51.0188L16.571 50.4831L7.1732 52.9366L9.68168 43.8174L9.09106 42.8799C6.60586 38.9454 5.28916 34.3859 5.29419 29.7322C5.29419 16.1077 16.4384 5.02245 30.1352 5.02245C36.7057 5.01071 43.0118 7.60932 47.6666 12.2467C52.3213 16.8841 54.9434 23.1805 54.9562 29.751C54.9508 43.3768 43.812 54.4634 30.1258 54.4634ZM43.745 35.9559C42.999 35.5835 39.3254 33.7862 38.645 33.5385C37.9647 33.2907 37.4624 33.1661 36.9656 33.9108C36.4687 34.6554 35.037 36.3215 34.6017 36.8237C34.1665 37.3259 33.7312 37.3809 32.9852 37.0085C32.2392 36.6362 29.8325 35.8527 26.9812 33.3215C24.762 31.3514 23.2647 28.9193 22.8294 28.176C22.3942 27.4327 22.7826 27.0295 23.1562 26.6599C23.4924 26.3264 23.9022 25.792 24.2759 25.3581C24.6495 24.9242 24.7741 24.6135 25.0218 24.1179C25.2696 23.6224 25.1464 23.1885 24.9602 22.8175C24.7741 22.4465 23.2808 18.7889 22.6593 17.301C22.0526 15.8519 21.4379 16.0488 20.9799 16.026C20.5446 16.0046 20.0424 15.9992 19.5482 15.9992C19.1704 16.009 18.7987 16.0967 18.4562 16.2566C18.1138 16.4165 17.8081 16.6453 17.558 16.9287C16.8736 17.6733 14.9451 19.4733 14.9451 23.1269C14.9451 26.7804 17.6236 30.3161 17.9933 30.8117C18.3629 31.3072 23.2567 38.8112 30.7446 42.0295C32.135 42.625 33.5557 43.1471 35.0008 43.5938C36.7888 44.159 38.416 44.0799 39.7017 43.8884C41.1361 43.6755 44.1214 42.0911 44.7414 40.3554C45.3615 38.6197 45.3629 37.1331 45.1767 36.8237C44.9906 36.5143 44.4923 36.3268 43.745 35.9559Z" fill="black"/>
</svg>
